<svg height="3038" width="720" xmlns="http://www.w3.org/2000/svg">
<rect height="3038" fill="#555" width="720"></rect>
<text fill="#7f7" font-family="Courier New" font-size="12" xml:space="preserve">
<tspan x="10" y="26">24 megabytes installed</tspan>
<tspan x="10" y="42"></tspan>
<tspan x="10" y="58">node_modules</tspan>
<tspan x="10" y="74">└─┬ tsd@0.6.5 </tspan>
<tspan x="10" y="90">  ├── assertion-error@1.0.0 </tspan>
<tspan x="10" y="106">  ├─┬ bl@0.9.5 </tspan>
<tspan x="10" y="122">  │ └─┬ readable-stream@1.0.34 </tspan>
<tspan x="10" y="138">  │   ├── core-util-is@1.0.2 </tspan>
<tspan x="10" y="154">  │   ├── isarray@0.0.1 </tspan>
<tspan x="10" y="170">  │   └── string_decoder@0.10.31 </tspan>
<tspan x="10" y="186">  ├── bluebird@1.2.4 </tspan>
<tspan x="10" y="202">  ├─┬ chalk@1.1.3 </tspan>
<tspan x="10" y="218">  │ ├── ansi-styles@2.2.1 </tspan>
<tspan x="10" y="234">  │ ├── escape-string-regexp@1.0.5 </tspan>
<tspan x="10" y="250">  │ ├─┬ has-ansi@2.0.0 </tspan>
<tspan x="10" y="266">  │ │ └── ansi-regex@2.1.1 </tspan>
<tspan x="10" y="282">  │ ├── strip-ansi@3.0.1 </tspan>
<tspan x="10" y="298">  │ └── supports-color@2.0.0 </tspan>
<tspan x="10" y="314">  ├── colors@1.1.2 </tspan>
<tspan x="10" y="330">  ├── deep-freeze@0.0.1 </tspan>
<tspan x="10" y="346">  ├─┬ definition-header@0.1.0 </tspan>
<tspan x="10" y="362">  │ ├─┬ parsimmon@0.5.1 </tspan>
<tspan x="10" y="378">  │ │ └── pjs@5.1.1 </tspan>
<tspan x="10" y="394">  │ └── xregexp@2.0.0 </tspan>
<tspan x="10" y="410">  ├─┬ detect-indent@0.2.0 </tspan>
<tspan x="10" y="426">  │ ├── get-stdin@0.1.0 </tspan>
<tspan x="10" y="442">  │ └── minimist@0.1.0 </tspan>
<tspan x="10" y="458">  ├── diff@1.4.0 </tspan>
<tspan x="10" y="474">  ├─┬ event-stream@3.1.7 </tspan>
<tspan x="10" y="490">  │ ├── duplexer@0.1.1 </tspan>
<tspan x="10" y="506">  │ ├── from@0.1.7 </tspan>
<tspan x="10" y="522">  │ ├── map-stream@0.1.0 </tspan>
<tspan x="10" y="538">  │ ├── pause-stream@0.0.11 </tspan>
<tspan x="10" y="554">  │ ├── split@0.2.10 </tspan>
<tspan x="10" y="570">  │ ├── stream-combiner@0.0.4 </tspan>
<tspan x="10" y="586">  │ └── through@2.3.8 </tspan>
<tspan x="10" y="602">  ├── exit@0.1.2 </tspan>
<tspan x="10" y="618">  ├─┬ glob@4.5.3 </tspan>
<tspan x="10" y="634">  │ ├─┬ inflight@1.0.6 </tspan>
<tspan x="10" y="650">  │ │ └── wrappy@1.0.2 </tspan>
<tspan x="10" y="666">  │ ├── inherits@2.0.3 </tspan>
<tspan x="10" y="682">  │ ├─┬ minimatch@2.0.10 </tspan>
<tspan x="10" y="698">  │ │ └─┬ brace-expansion@1.1.7 </tspan>
<tspan x="10" y="714">  │ │   ├── balanced-match@0.4.2 </tspan>
<tspan x="10" y="730">  │ │   └── concat-map@0.0.1 </tspan>
<tspan x="10" y="746">  │ └── once@1.4.0 </tspan>
<tspan x="10" y="762">  ├─┬ joi@4.9.0 </tspan>
<tspan x="10" y="778">  │ ├── hoek@2.16.3 </tspan>
<tspan x="10" y="794">  │ ├── isemail@1.2.0 </tspan>
<tspan x="10" y="810">  │ ├── moment@2.18.1 </tspan>
<tspan x="10" y="826">  │ └── topo@1.1.0 </tspan>
<tspan x="10" y="842">  ├── joi-assert@0.0.3 </tspan>
<tspan x="10" y="858">  ├── jsesc@0.5.0 </tspan>
<tspan x="10" y="874">  ├─┬ json-pointer@0.2.2 </tspan>
<tspan x="10" y="890">  │ └── foreach@2.0.5 </tspan>
<tspan x="10" y="906">  ├── lazy.js@0.3.2 </tspan>
<tspan x="10" y="922">  ├── lru-cache@2.5.2 </tspan>
<tspan x="10" y="938">  ├─┬ minimatch@1.0.0 </tspan>
<tspan x="10" y="954">  │ └── sigmund@1.0.1 </tspan>
<tspan x="10" y="970">  ├── minimist@1.2.0 </tspan>
<tspan x="10" y="986">  ├── ministyle@0.1.4 </tspan>
<tspan x="10" y="1002">  ├─┬ minitable@0.0.4 </tspan>
<tspan x="10" y="1018">  │ └── minichain@0.0.1 </tspan>
<tspan x="10" y="1034">  ├─┬ miniwrite@0.1.4 </tspan>
<tspan x="10" y="1050">  │ └── mkdirp@0.3.5 </tspan>
<tspan x="10" y="1066">  ├─┬ mkdirp@0.5.1 </tspan>
<tspan x="10" y="1082">  │ └── minimist@0.0.8 </tspan>
<tspan x="10" y="1098">  ├── open@0.0.5 </tspan>
<tspan x="10" y="1114">  ├─┬ request@2.81.0 </tspan>
<tspan x="10" y="1130">  │ ├── aws-sign2@0.6.0 </tspan>
<tspan x="10" y="1146">  │ ├── aws4@1.6.0 </tspan>
<tspan x="10" y="1162">  │ ├── caseless@0.12.0 </tspan>
<tspan x="10" y="1178">  │ ├─┬ combined-stream@1.0.5 </tspan>
<tspan x="10" y="1194">  │ │ └── delayed-stream@1.0.0 </tspan>
<tspan x="10" y="1210">  │ ├── extend@3.0.0 </tspan>
<tspan x="10" y="1226">  │ ├── forever-agent@0.6.1 </tspan>
<tspan x="10" y="1242">  │ ├─┬ form-data@2.1.4 </tspan>
<tspan x="10" y="1258">  │ │ └── asynckit@0.4.0 </tspan>
<tspan x="10" y="1274">  │ ├─┬ har-validator@4.2.1 </tspan>
<tspan x="10" y="1290">  │ │ ├─┬ ajv@4.11.7 </tspan>
<tspan x="10" y="1306">  │ │ │ ├── co@4.6.0 </tspan>
<tspan x="10" y="1322">  │ │ │ └─┬ json-stable-stringify@1.0.1 </tspan>
<tspan x="10" y="1338">  │ │ │   └── jsonify@0.0.0 </tspan>
<tspan x="10" y="1354">  │ │ └── har-schema@1.0.5 </tspan>
<tspan x="10" y="1370">  │ ├─┬ hawk@3.1.3 </tspan>
<tspan x="10" y="1386">  │ │ ├── boom@2.10.1 </tspan>
<tspan x="10" y="1402">  │ │ ├── cryptiles@2.0.5 </tspan>
<tspan x="10" y="1418">  │ │ └── sntp@1.0.9 </tspan>
<tspan x="10" y="1434">  │ ├─┬ http-signature@1.1.1 </tspan>
<tspan x="10" y="1450">  │ │ ├── assert-plus@0.2.0 </tspan>
<tspan x="10" y="1466">  │ │ ├─┬ jsprim@1.4.0 </tspan>
<tspan x="10" y="1482">  │ │ │ ├── assert-plus@1.0.0 </tspan>
<tspan x="10" y="1498">  │ │ │ ├── extsprintf@1.0.2 </tspan>
<tspan x="10" y="1514">  │ │ │ ├── json-schema@0.2.3 </tspan>
<tspan x="10" y="1530">  │ │ │ └── verror@1.3.6 </tspan>
<tspan x="10" y="1546">  │ │ └─┬ sshpk@1.13.0 </tspan>
<tspan x="10" y="1562">  │ │   ├── asn1@0.2.3 </tspan>
<tspan x="10" y="1578">  │ │   ├── assert-plus@1.0.0 </tspan>
<tspan x="10" y="1594">  │ │   ├── bcrypt-pbkdf@1.0.1 </tspan>
<tspan x="10" y="1610">  │ │   ├─┬ dashdash@1.14.1 </tspan>
<tspan x="10" y="1626">  │ │   │ └── assert-plus@1.0.0 </tspan>
<tspan x="10" y="1642">  │ │   ├── ecc-jsbn@0.1.1 </tspan>
<tspan x="10" y="1658">  │ │   ├─┬ getpass@0.1.6 </tspan>
<tspan x="10" y="1674">  │ │   │ └── assert-plus@1.0.0 </tspan>
<tspan x="10" y="1690">  │ │   ├── jodid25519@1.0.2 </tspan>
<tspan x="10" y="1706">  │ │   ├── jsbn@0.1.1 </tspan>
<tspan x="10" y="1722">  │ │   └── tweetnacl@0.14.5 </tspan>
<tspan x="10" y="1738">  │ ├── is-typedarray@1.0.0 </tspan>
<tspan x="10" y="1754">  │ ├── isstream@0.1.2 </tspan>
<tspan x="10" y="1770">  │ ├── json-stringify-safe@5.0.1 </tspan>
<tspan x="10" y="1786">  │ ├─┬ mime-types@2.1.15 </tspan>
<tspan x="10" y="1802">  │ │ └── mime-db@1.27.0 </tspan>
<tspan x="10" y="1818">  │ ├── oauth-sign@0.8.2 </tspan>
<tspan x="10" y="1834">  │ ├── performance-now@0.2.0 </tspan>
<tspan x="10" y="1850">  │ ├── qs@6.4.0 </tspan>
<tspan x="10" y="1866">  │ ├── safe-buffer@5.0.1 </tspan>
<tspan x="10" y="1882">  │ ├── stringstream@0.0.5 </tspan>
<tspan x="10" y="1898">  │ ├─┬ tough-cookie@2.3.2 </tspan>
<tspan x="10" y="1914">  │ │ └── punycode@1.4.1 </tspan>
<tspan x="10" y="1930">  │ ├── tunnel-agent@0.6.0 </tspan>
<tspan x="10" y="1946">  │ └── uuid@3.0.1 </tspan>
<tspan x="10" y="1962">  ├── rimraf@2.2.8 </tspan>
<tspan x="10" y="1978">  ├── semver@4.3.6 </tspan>
<tspan x="10" y="1994">  ├── type-detect@0.1.2 </tspan>
<tspan x="10" y="2010">  ├─┬ universal-analytics@0.3.11 </tspan>
<tspan x="10" y="2026">  │ ├── async@0.2.10 </tspan>
<tspan x="10" y="2042">  │ ├── node-uuid@1.4.8 </tspan>
<tspan x="10" y="2058">  │ └── underscore@1.8.3 </tspan>
<tspan x="10" y="2074">  ├─┬ update-notifier@0.2.2 </tspan>
<tspan x="10" y="2090">  │ ├─┬ chalk@0.5.1 </tspan>
<tspan x="10" y="2106">  │ │ ├── ansi-styles@1.1.0 </tspan>
<tspan x="10" y="2122">  │ │ ├─┬ has-ansi@0.1.0 </tspan>
<tspan x="10" y="2138">  │ │ │ └── ansi-regex@0.2.1 </tspan>
<tspan x="10" y="2154">  │ │ ├── strip-ansi@0.3.0 </tspan>
<tspan x="10" y="2170">  │ │ └── supports-color@0.2.0 </tspan>
<tspan x="10" y="2186">  │ ├─┬ configstore@0.3.2 </tspan>
<tspan x="10" y="2202">  │ │ ├─┬ graceful-fs@3.0.11 </tspan>
<tspan x="10" y="2218">  │ │ │ └── natives@1.1.0 </tspan>
<tspan x="10" y="2234">  │ │ ├─┬ js-yaml@3.8.3 </tspan>
<tspan x="10" y="2250">  │ │ │ ├─┬ argparse@1.0.9 </tspan>
<tspan x="10" y="2266">  │ │ │ │ └── sprintf-js@1.0.3 </tspan>
<tspan x="10" y="2282">  │ │ │ └── esprima@3.1.3 </tspan>
<tspan x="10" y="2298">  │ │ ├── object-assign@2.1.1 </tspan>
<tspan x="10" y="2314">  │ │ ├─┬ osenv@0.1.4 </tspan>
<tspan x="10" y="2330">  │ │ │ ├── os-homedir@1.0.2 </tspan>
<tspan x="10" y="2346">  │ │ │ └── os-tmpdir@1.0.2 </tspan>
<tspan x="10" y="2362">  │ │ ├── user-home@1.1.1 </tspan>
<tspan x="10" y="2378">  │ │ └── xdg-basedir@1.0.1 </tspan>
<tspan x="10" y="2394">  │ ├── is-npm@1.0.0 </tspan>
<tspan x="10" y="2410">  │ ├─┬ latest-version@1.0.1 </tspan>
<tspan x="10" y="2426">  │ │ └─┬ package-json@1.2.0 </tspan>
<tspan x="10" y="2442">  │ │   ├─┬ got@3.3.1 </tspan>
<tspan x="10" y="2458">  │ │   │ ├─┬ duplexify@3.5.0 </tspan>
<tspan x="10" y="2474">  │ │   │ │ ├─┬ end-of-stream@1.0.0 </tspan>
<tspan x="10" y="2490">  │ │   │ │ │ └── once@1.3.3 </tspan>
<tspan x="10" y="2506">  │ │   │ │ ├─┬ readable-stream@2.2.9 </tspan>
<tspan x="10" y="2522">  │ │   │ │ │ ├── buffer-shims@1.0.0 </tspan>
<tspan x="10" y="2538">  │ │   │ │ │ ├── isarray@1.0.0 </tspan>
<tspan x="10" y="2554">  │ │   │ │ │ ├── process-nextick-args@1.0.7 </tspan>
<tspan x="10" y="2570">  │ │   │ │ │ ├── string_decoder@1.0.0 </tspan>
<tspan x="10" y="2586">  │ │   │ │ │ └── util-deprecate@1.0.2 </tspan>
<tspan x="10" y="2602">  │ │   │ │ └── stream-shift@1.0.0 </tspan>
<tspan x="10" y="2618">  │ │   │ ├── infinity-agent@2.0.3 </tspan>
<tspan x="10" y="2634">  │ │   │ ├── is-redirect@1.0.0 </tspan>
<tspan x="10" y="2650">  │ │   │ ├── is-stream@1.1.0 </tspan>
<tspan x="10" y="2666">  │ │   │ ├── lowercase-keys@1.0.0 </tspan>
<tspan x="10" y="2682">  │ │   │ ├── nested-error-stacks@1.0.2 </tspan>
<tspan x="10" y="2698">  │ │   │ ├── object-assign@3.0.0 </tspan>
<tspan x="10" y="2714">  │ │   │ ├── prepend-http@1.0.4 </tspan>
<tspan x="10" y="2730">  │ │   │ ├─┬ read-all-stream@3.1.0 </tspan>
<tspan x="10" y="2746">  │ │   │ │ ├─┬ pinkie-promise@2.0.1 </tspan>
<tspan x="10" y="2762">  │ │   │ │ │ └── pinkie@2.0.4 </tspan>
<tspan x="10" y="2778">  │ │   │ │ └─┬ readable-stream@2.2.9 </tspan>
<tspan x="10" y="2794">  │ │   │ │   ├── isarray@1.0.0 </tspan>
<tspan x="10" y="2810">  │ │   │ │   └── string_decoder@1.0.0 </tspan>
<tspan x="10" y="2826">  │ │   │ └── timed-out@2.0.0 </tspan>
<tspan x="10" y="2842">  │ │   └─┬ registry-url@3.1.0 </tspan>
<tspan x="10" y="2858">  │ │     └─┬ rc@1.2.1 </tspan>
<tspan x="10" y="2874">  │ │       ├── deep-extend@0.4.1 </tspan>
<tspan x="10" y="2890">  │ │       ├── ini@1.3.4 </tspan>
<tspan x="10" y="2906">  │ │       └── strip-json-comments@2.0.1 </tspan>
<tspan x="10" y="2922">  │ ├─┬ semver-diff@2.1.0 </tspan>
<tspan x="10" y="2938">  │ │ └── semver@5.3.0 </tspan>
<tspan x="10" y="2954">  │ └── string-length@1.0.1 </tspan>
<tspan x="10" y="2970">  ├── uri-templates@0.1.9 </tspan>
<tspan x="10" y="2986">  ├── uuid@2.0.3 </tspan>
<tspan x="10" y="3002">  └─┬ verror@1.4.0 </tspan>
<tspan x="10" y="3018">    └── extsprintf@1.0.3</tspan>
</text>
</svg>
